<?xml version="1.0" encoding="UTF-8" standalone="no"?>
<!-- Created with Inkscape (http://www.inkscape.org/) -->

<svg
   xmlns:dc="http://purl.org/dc/elements/1.1/"
   xmlns:cc="http://creativecommons.org/ns#"
   xmlns:rdf="http://www.w3.org/1999/02/22-rdf-syntax-ns#"
   xmlns:svg="http://www.w3.org/2000/svg"
   xmlns="http://www.w3.org/2000/svg"
   xmlns:xlink="http://www.w3.org/1999/xlink"
   version="1.1"
   width="700"
   height="499"
   id="svg3055">
  <metadata
     id="metadata3061">
    <rdf:RDF>
      <cc:Work
         rdf:about="">
        <dc:format>image/svg+xml</dc:format>
        <dc:type
           rdf:resource="http://purl.org/dc/dcmitype/StillImage" />
        <dc:title></dc:title>
      </cc:Work>
    </rdf:RDF>
  </metadata>
  <defs
     id="defs3059" />
  <image
     xlink:href="./connector.jpg"
     x="0"
     y="0"
     width="700"
     height="499"
     id="image3063" />
  <text
     x="547.49255"
     y="426.70398"
     id="text3065"
     xml:space="preserve"
     style="font-size:40px;font-style:normal;font-weight:bold;line-height:125%;letter-spacing:0px;word-spacing:0px;fill:#ff0000;fill-opacity:1;stroke:none;font-family:Sans;-inkscape-font-specification:Sans Bold"><tspan
       x="547.49255"
       y="426.70398"
       id="tspan3067">GND</tspan></text>
  <text
     x="352.13339"
     y="85.410675"
     id="text3077"
     xml:space="preserve"
     style="font-size:40px;font-style:normal;font-weight:bold;line-height:125%;letter-spacing:0px;word-spacing:0px;fill:#ff0000;fill-opacity:1;stroke:none;font-family:Sans;-inkscape-font-specification:Sans Bold"><tspan
       x="352.13339"
       y="85.410675"
       id="tspan3079">Vcc</tspan></text>
  <text
     x="491.67706"
     y="99.672066"
     id="text3081"
     xml:space="preserve"
     style="font-size:40px;font-style:normal;font-weight:bold;line-height:125%;letter-spacing:0px;word-spacing:0px;fill:#ff0000;fill-opacity:1;stroke:none;font-family:Sans;-inkscape-font-specification:Sans Bold"><tspan
       x="491.67706"
       y="99.672066"
       id="tspan3083">Sensor</tspan></text>
  <g
     transform="translate(-49.755697,-43.335607)"
     id="g3935">
    <text
       x="248.41881"
       y="143.05139"
       id="text3069"
       xml:space="preserve"
       style="font-size:40px;font-style:normal;font-weight:bold;line-height:125%;letter-spacing:0px;word-spacing:0px;fill:#ff0000;fill-opacity:1;stroke:none;font-family:Sans;-inkscape-font-specification:Sans Bold"><tspan
         x="248.41881"
         y="143.05139"
         id="tspan3071">M</tspan></text>
    <path
       d="m -37.059864,119.13638 a 23.677135,23.677135 0 1 1 -47.354271,0 23.677135,23.677135 0 1 1 47.354271,0 z"
       transform="matrix(0.58052321,0,0,0.58052321,340.86581,59.30988)"
       id="path3085"
       style="fill:none;stroke:#ff0000;stroke-width:5;stroke-linecap:square;stroke-linejoin:miter;stroke-miterlimit:4;stroke-opacity:1;stroke-dasharray:none;stroke-dashoffset:0" />
    <rect
       width="19.710537"
       height="3.9421041"
       rx="0"
       ry="0"
       x="295.75131"
       y="126.50027"
       id="rect3855"
       style="fill:#ff0000;fill-opacity:1;stroke:none" />
    <rect
       width="19.710537"
       height="3.9421041"
       rx="0"
       ry="0"
       x="118.61606"
       y="-307.57764"
       transform="matrix(0,1,-1,0,0,0)"
       id="rect3857"
       style="fill:#ff0000;fill-opacity:1;stroke:none" />
  </g>
  <g
     transform="translate(-65.805922,32.10045)"
     id="g3929">
    <path
       d="m -37.059864,119.13638 a 23.677135,23.677135 0 1 1 -47.354271,0 23.677135,23.677135 0 1 1 47.354271,0 z"
       transform="matrix(0.58052321,0,0,0.58052321,306.25834,310.52393)"
       id="path3866"
       style="fill:none;stroke:#ff0000;stroke-width:5;stroke-linecap:square;stroke-linejoin:miter;stroke-miterlimit:4;stroke-opacity:1;stroke-dasharray:none;stroke-dashoffset:0" />
    <rect
       width="19.710537"
       height="3.9421041"
       rx="0"
       ry="0"
       x="261.14383"
       y="377.71432"
       id="rect3868"
       style="fill:#ff0000;fill-opacity:1;stroke:none" />
    <text
       x="214.13846"
       y="394.26544"
       id="text3872"
       xml:space="preserve"
       style="font-size:40px;font-style:normal;font-weight:bold;line-height:125%;letter-spacing:0px;word-spacing:0px;fill:#ff0000;fill-opacity:1;stroke:none;font-family:Sans;-inkscape-font-specification:Sans Bold"><tspan
         x="214.13846"
         y="394.26544"
         id="tspan3874">M</tspan></text>
  </g>
  <path
     d="M 363.10771,236.78108 207.23804,382.51296"
     id="path3878"
     style="fill:none;stroke:#ff0000;stroke-width:5;stroke-linecap:round;stroke-linejoin:miter;stroke-miterlimit:4;stroke-opacity:1;stroke-dasharray:none" />
  <path
     d="m 95.495295,76.208862 a 26.118372,26.118372 0 1 1 -52.236744,0 26.118372,26.118372 0 1 1 52.236744,0 z"
     transform="matrix(0.59375001,0,0,0.59375001,374.25279,191.25497)"
     id="path3895"
     style="fill:#ff0000;fill-opacity:1;fill-rule:evenodd;stroke:none" />
  <path
     d="m 95.495295,76.208862 a 26.118372,26.118372 0 1 1 -52.236744,0 26.118372,26.118372 0 1 1 52.236744,0 z"
     transform="matrix(0.59375001,0,0,0.59375001,425.10518,189.62257)"
     id="path3897"
     style="fill:#ff0000;fill-opacity:1;fill-rule:evenodd;stroke:none" />
  <path
     d="m 95.495295,76.208862 a 26.118372,26.118372 0 1 1 -52.236744,0 26.118372,26.118372 0 1 1 52.236744,0 z"
     transform="matrix(0.59375001,0,0,0.59375001,421.09623,138.94618)"
     id="path3899"
     style="fill:#ff0000;fill-opacity:1;fill-rule:evenodd;stroke:none" />
  <path
     d="m 95.495295,76.208862 a 26.118372,26.118372 0 1 1 -52.236744,0 26.118372,26.118372 0 1 1 52.236744,0 z"
     transform="matrix(0.59375001,0,0,0.59375001,371.26793,139.65844)"
     id="path3901"
     style="fill:#ff0000;fill-opacity:1;fill-rule:evenodd;stroke:none" />
  <path
     d="m 95.495295,76.208862 a 26.118372,26.118372 0 1 1 -52.236744,0 26.118372,26.118372 0 1 1 52.236744,0 z"
     transform="matrix(0.59375001,0,0,0.59375001,319.81549,140.86679)"
     id="path3903"
     style="fill:#ff0000;fill-opacity:1;fill-rule:evenodd;stroke:none" />
  <path
     d="m 95.495295,76.208862 a 26.118372,26.118372 0 1 1 -52.236744,0 26.118372,26.118372 0 1 1 52.236744,0 z"
     transform="matrix(0.59375001,0,0,0.59375001,321.87193,191.99913)"
     id="path3905"
     style="fill:#ff0000;fill-opacity:1;fill-rule:evenodd;stroke:none" />
  <path
     d="M 467.09858,235.84725 590.94056,387.60526"
     id="path3907"
     style="fill:none;stroke:#ff0000;stroke-width:5;stroke-linecap:round;stroke-linejoin:miter;stroke-miterlimit:4;stroke-opacity:1;stroke-dasharray:none" />
  <path
     d="m 461.71446,187.88626 96.51281,-71.63195"
     id="path3909"
     style="fill:none;stroke:#ff0000;stroke-width:5;stroke-linecap:round;stroke-linejoin:miter;stroke-miterlimit:4;stroke-opacity:1;stroke-dasharray:none" />
  <path
     d="m 411.91499,185.43495 -20.3766,-85.05577"
     id="path3911"
     style="fill:none;stroke:#ff0000;stroke-width:5;stroke-linecap:round;stroke-linejoin:miter;stroke-miterlimit:4;stroke-opacity:1;stroke-dasharray:none" />
  <path
     d="M 362.3052,184.61785 244.15356,113.6717"
     id="path3942"
     style="fill:none;stroke:#ff0000;stroke-width:5;stroke-linecap:round;stroke-linejoin:miter;stroke-miterlimit:4;stroke-opacity:1;stroke-dasharray:none" />
  <path
     d="m 415.73786,239.05729 175.2027,149.35048"
     id="path3944"
     style="fill:none;stroke:#ff0000;stroke-width:5;stroke-linecap:round;stroke-linejoin:miter;stroke-miterlimit:4;stroke-opacity:1;stroke-dasharray:none" />
</svg>
